<?xml version="1.0" encoding="UTF-8" standalone="no"?>
<!-- Created with Inkscape (http://www.inkscape.org/) -->

<svg
   xmlns:dc="http://purl.org/dc/elements/1.1/"
   xmlns:cc="http://creativecommons.org/ns#"
   xmlns:rdf="http://www.w3.org/1999/02/22-rdf-syntax-ns#"
   xmlns:svg="http://www.w3.org/2000/svg"
   xmlns="http://www.w3.org/2000/svg"
   xmlns:sodipodi="http://sodipodi.sourceforge.net/DTD/sodipodi-0.dtd"
   xmlns:inkscape="http://www.inkscape.org/namespaces/inkscape"
   width="63.187885"
   height="63.21875"
   id="svg2"
   version="1.1"
   inkscape:version="0.48.4 r9939"
   sodipodi:docname="New document 1">
  <defs
     id="defs4" />
  <sodipodi:namedview
     id="base"
     pagecolor="#ffffff"
     bordercolor="#666666"
     borderopacity="1.0"
     inkscape:pageopacity="0.0"
     inkscape:pageshadow="2"
     inkscape:zoom="2.8"
     inkscape:cx="133.84613"
     inkscape:cy="-71.352957"
     inkscape:document-units="px"
     inkscape:current-layer="layer1"
     showgrid="true"
     showguides="true"
     inkscape:guide-bbox="true"
     inkscape:snap-grids="true"
     inkscape:snap-center="true"
     inkscape:snap-midpoints="true"
     fit-margin-top="0"
     fit-margin-left="0"
     fit-margin-right="0"
     fit-margin-bottom="0"
     inkscape:window-width="1920"
     inkscape:window-height="1028"
     inkscape:window-x="0"
     inkscape:window-y="0"
     inkscape:window-maximized="1">
    <inkscape:grid
       type="xygrid"
       id="grid2985"
       empspacing="5"
       visible="true"
       enabled="true"
       snapvisiblegridlinesonly="true"
       originx="-8.406057px"
       originy="-983.39343px" />
    <sodipodi:guide
       orientation="1,0"
       position="21.593943,56.60657"
       id="guide3771" />
    <sodipodi:guide
       orientation="1,0"
       position="41.593943,56.60657"
       id="guide3773" />
    <sodipodi:guide
       orientation="0,1"
       position="31.593943,46.60657"
       id="guide3775" />
    <sodipodi:guide
       orientation="0,1"
       position="21.593943,31.60657"
       id="guide3777" />
    <sodipodi:guide
       orientation="0,1"
       position="21.593943,16.60657"
       id="guide3779" />
  </sodipodi:namedview>
  <metadata
     id="metadata7">
    <rdf:RDF>
      <cc:Work
         rdf:about="">
        <dc:format>image/svg+xml</dc:format>
        <dc:type
           rdf:resource="http://purl.org/dc/dcmitype/StillImage" />
        <dc:title></dc:title>
      </cc:Work>
    </rdf:RDF>
  </metadata>
  <g
     inkscape:label="Layer 1"
     inkscape:groupmode="layer"
     id="layer1"
     transform="translate(-8.406057,-5.75)">
    <g
       id="g3979">
      <rect
         y="7.3621826"
         x="10"
         height="60"
         width="60"
         id="6"
         style="fill:none;stroke:#999999;stroke-width:3.20000005;stroke-linejoin:round;stroke-miterlimit:4;stroke-dasharray:none"
         inkscape:label="#rect2987" />
      <g
         id="g3915">
        <path
           sodipodi:type="arc"
           style="fill:#00ffcc;fill-opacity:1;stroke:none"
           id="path3781"
           sodipodi:cx="30"
           sodipodi:cy="22.362183"
           sodipodi:rx="3"
           sodipodi:ry="3"
           d="m 33,22.362183 c 0,1.656854 -1.343146,3 -3,3 -1.656854,0 -3,-1.343146 -3,-3 0,-1.656855 1.343146,-3 3,-3 1.656854,0 3,1.343145 3,3 z"
           transform="translate(-5,0)" />
        <path
           d="m 33,22.362183 c 0,1.656854 -1.343146,3 -3,3 -1.656854,0 -3,-1.343146 -3,-3 0,-1.656855 1.343146,-3 3,-3 1.656854,0 3,1.343145 3,3 z"
           sodipodi:ry="3"
           sodipodi:rx="3"
           sodipodi:cy="22.362183"
           sodipodi:cx="30"
           id="path3783"
           style="fill:#00ffcc;fill-opacity:1;stroke:none"
           sodipodi:type="arc"
           transform="translate(25,0)" />
        <path
           transform="translate(25,15)"
           sodipodi:type="arc"
           style="fill:#00ffcc;fill-opacity:1;stroke:none"
           id="path3785"
           sodipodi:cx="30"
           sodipodi:cy="22.362183"
           sodipodi:rx="3"
           sodipodi:ry="3"
           d="m 33,22.362183 c 0,1.656854 -1.343146,3 -3,3 -1.656854,0 -3,-1.343146 -3,-3 0,-1.656855 1.343146,-3 3,-3 1.656854,0 3,1.343145 3,3 z" />
        <path
           d="m 33,22.362183 c 0,1.656854 -1.343146,3 -3,3 -1.656854,0 -3,-1.343146 -3,-3 0,-1.656855 1.343146,-3 3,-3 1.656854,0 3,1.343145 3,3 z"
           sodipodi:ry="3"
           sodipodi:rx="3"
           sodipodi:cy="22.362183"
           sodipodi:cx="30"
           id="path3787"
           style="fill:#00ffcc;fill-opacity:1;stroke:none"
           sodipodi:type="arc"
           transform="translate(-5,15)" />
        <path
           transform="translate(-5,30)"
           sodipodi:type="arc"
           style="fill:#00ffcc;fill-opacity:1;stroke:none"
           id="path3789"
           sodipodi:cx="30"
           sodipodi:cy="22.362183"
           sodipodi:rx="3"
           sodipodi:ry="3"
           d="m 33,22.362183 c 0,1.656854 -1.343146,3 -3,3 -1.656854,0 -3,-1.343146 -3,-3 0,-1.656855 1.343146,-3 3,-3 1.656854,0 3,1.343145 3,3 z" />
        <path
           d="m 33,22.362183 c 0,1.656854 -1.343146,3 -3,3 -1.656854,0 -3,-1.343146 -3,-3 0,-1.656855 1.343146,-3 3,-3 1.656854,0 3,1.343145 3,3 z"
           sodipodi:ry="3"
           sodipodi:rx="3"
           sodipodi:cy="22.362183"
           sodipodi:cx="30"
           id="path3791"
           style="fill:#00ffcc;fill-opacity:1;stroke:none"
           sodipodi:type="arc"
           transform="translate(25,30)" />
      </g>
    </g>
    <g
       id="5"
       inkscape:label="#g3970">
      <rect
         style="fill:none;stroke:#999999;stroke-width:3.20000005;stroke-linejoin:round;stroke-miterlimit:4;stroke-dasharray:none"
         id="rect3793"
         width="60"
         height="60"
         x="95"
         y="7.3621826" />
      <g
         id="g3923">
        <path
           transform="translate(80,0)"
           d="m 33,22.362183 c 0,1.656854 -1.343146,3 -3,3 -1.656854,0 -3,-1.343146 -3,-3 0,-1.656855 1.343146,-3 3,-3 1.656854,0 3,1.343145 3,3 z"
           sodipodi:ry="3"
           sodipodi:rx="3"
           sodipodi:cy="22.362183"
           sodipodi:cx="30"
           id="path3795"
           style="fill:#00ffcc;fill-opacity:1;stroke:none"
           sodipodi:type="arc" />
        <path
           transform="translate(110,0)"
           sodipodi:type="arc"
           style="fill:#00ffcc;fill-opacity:1;stroke:none"
           id="path3797"
           sodipodi:cx="30"
           sodipodi:cy="22.362183"
           sodipodi:rx="3"
           sodipodi:ry="3"
           d="m 33,22.362183 c 0,1.656854 -1.343146,3 -3,3 -1.656854,0 -3,-1.343146 -3,-3 0,-1.656855 1.343146,-3 3,-3 1.656854,0 3,1.343145 3,3 z" />
        <path
           transform="translate(95,15)"
           sodipodi:type="arc"
           style="fill:#00ffcc;fill-opacity:1;stroke:none"
           id="path3801"
           sodipodi:cx="30"
           sodipodi:cy="22.362183"
           sodipodi:rx="3"
           sodipodi:ry="3"
           d="m 33,22.362183 c 0,1.656854 -1.343146,3 -3,3 -1.656854,0 -3,-1.343146 -3,-3 0,-1.656855 1.343146,-3 3,-3 1.656854,0 3,1.343145 3,3 z" />
        <path
           d="m 33,22.362183 c 0,1.656854 -1.343146,3 -3,3 -1.656854,0 -3,-1.343146 -3,-3 0,-1.656855 1.343146,-3 3,-3 1.656854,0 3,1.343145 3,3 z"
           sodipodi:ry="3"
           sodipodi:rx="3"
           sodipodi:cy="22.362183"
           sodipodi:cx="30"
           id="path3803"
           style="fill:#00ffcc;fill-opacity:1;stroke:none"
           sodipodi:type="arc"
           transform="translate(80,30)" />
        <path
           transform="translate(110,30)"
           sodipodi:type="arc"
           style="fill:#00ffcc;fill-opacity:1;stroke:none"
           id="path3805"
           sodipodi:cx="30"
           sodipodi:cy="22.362183"
           sodipodi:rx="3"
           sodipodi:ry="3"
           d="m 33,22.362183 c 0,1.656854 -1.343146,3 -3,3 -1.656854,0 -3,-1.343146 -3,-3 0,-1.656855 1.343146,-3 3,-3 1.656854,0 3,1.343145 3,3 z" />
      </g>
    </g>
    <g
       id="3"
       inkscape:label="#g3955">
      <rect
         style="fill:none;stroke:#999999;stroke-width:3.20000005;stroke-linejoin:round;stroke-miterlimit:4;stroke-dasharray:none"
         id="rect3807"
         width="60"
         height="60"
         x="10"
         y="92.362183" />
      <g
         id="g3936">
        <path
           transform="translate(-5,85)"
           d="m 33,22.362183 c 0,1.656854 -1.343146,3 -3,3 -1.656854,0 -3,-1.343146 -3,-3 0,-1.656855 1.343146,-3 3,-3 1.656854,0 3,1.343145 3,3 z"
           sodipodi:ry="3"
           sodipodi:rx="3"
           sodipodi:cy="22.362183"
           sodipodi:cx="30"
           id="path3809"
           style="fill:#00ffcc;fill-opacity:1;stroke:none"
           sodipodi:type="arc" />
        <path
           d="m 33,22.362183 c 0,1.656854 -1.343146,3 -3,3 -1.656854,0 -3,-1.343146 -3,-3 0,-1.656855 1.343146,-3 3,-3 1.656854,0 3,1.343145 3,3 z"
           sodipodi:ry="3"
           sodipodi:rx="3"
           sodipodi:cy="22.362183"
           sodipodi:cx="30"
           id="path3813"
           style="fill:#00ffcc;fill-opacity:1;stroke:none"
           sodipodi:type="arc"
           transform="translate(10,100)" />
        <path
           transform="translate(25,115)"
           sodipodi:type="arc"
           style="fill:#00ffcc;fill-opacity:1;stroke:none"
           id="path3819"
           sodipodi:cx="30"
           sodipodi:cy="22.362183"
           sodipodi:rx="3"
           sodipodi:ry="3"
           d="m 33,22.362183 c 0,1.656854 -1.343146,3 -3,3 -1.656854,0 -3,-1.343146 -3,-3 0,-1.656855 1.343146,-3 3,-3 1.656854,0 3,1.343145 3,3 z" />
      </g>
    </g>
    <g
       id="4"
       inkscape:label="#g3962">
      <rect
         y="92.362183"
         x="95"
         height="60"
         width="60"
         id="rect3821"
         style="fill:none;stroke:#999999;stroke-width:3.20000005;stroke-linejoin:round;stroke-miterlimit:4;stroke-dasharray:none" />
      <g
         id="g3930">
        <path
           sodipodi:type="arc"
           style="fill:#00ffcc;fill-opacity:1;stroke:none"
           id="path3823"
           sodipodi:cx="30"
           sodipodi:cy="22.362183"
           sodipodi:rx="3"
           sodipodi:ry="3"
           d="m 33,22.362183 c 0,1.656854 -1.343146,3 -3,3 -1.656854,0 -3,-1.343146 -3,-3 0,-1.656855 1.343146,-3 3,-3 1.656854,0 3,1.343145 3,3 z"
           transform="translate(80,85)" />
        <path
           d="m 33,22.362183 c 0,1.656854 -1.343146,3 -3,3 -1.656854,0 -3,-1.343146 -3,-3 0,-1.656855 1.343146,-3 3,-3 1.656854,0 3,1.343145 3,3 z"
           sodipodi:ry="3"
           sodipodi:rx="3"
           sodipodi:cy="22.362183"
           sodipodi:cx="30"
           id="path3825"
           style="fill:#00ffcc;fill-opacity:1;stroke:none"
           sodipodi:type="arc"
           transform="translate(110,85)" />
        <path
           transform="translate(80,115)"
           sodipodi:type="arc"
           style="fill:#00ffcc;fill-opacity:1;stroke:none"
           id="path3831"
           sodipodi:cx="30"
           sodipodi:cy="22.362183"
           sodipodi:rx="3"
           sodipodi:ry="3"
           d="m 33,22.362183 c 0,1.656854 -1.343146,3 -3,3 -1.656854,0 -3,-1.343146 -3,-3 0,-1.656855 1.343146,-3 3,-3 1.656854,0 3,1.343145 3,3 z" />
        <path
           d="m 33,22.362183 c 0,1.656854 -1.343146,3 -3,3 -1.656854,0 -3,-1.343146 -3,-3 0,-1.656855 1.343146,-3 3,-3 1.656854,0 3,1.343145 3,3 z"
           sodipodi:ry="3"
           sodipodi:rx="3"
           sodipodi:cy="22.362183"
           sodipodi:cx="30"
           id="path3833"
           style="fill:#00ffcc;fill-opacity:1;stroke:none"
           sodipodi:type="arc"
           transform="translate(110,115)" />
      </g>
    </g>
    <g
       id="2"
       inkscape:label="#g3949">
      <rect
         y="177.36218"
         x="10"
         height="60"
         width="60"
         id="rect3835"
         style="fill:none;stroke:#999999;stroke-width:3.20000005;stroke-linejoin:round;stroke-miterlimit:4;stroke-dasharray:none" />
      <g
         id="g3941">
        <path
           sodipodi:type="arc"
           style="fill:#00ffcc;fill-opacity:1;stroke:none"
           id="path3837"
           sodipodi:cx="30"
           sodipodi:cy="22.362183"
           sodipodi:rx="3"
           sodipodi:ry="3"
           d="m 33,22.362183 c 0,1.656854 -1.343146,3 -3,3 -1.656854,0 -3,-1.343146 -3,-3 0,-1.656855 1.343146,-3 3,-3 1.656854,0 3,1.343145 3,3 z"
           transform="translate(-5,170)" />
        <path
           d="m 33,22.362183 c 0,1.656854 -1.343146,3 -3,3 -1.656854,0 -3,-1.343146 -3,-3 0,-1.656855 1.343146,-3 3,-3 1.656854,0 3,1.343145 3,3 z"
           sodipodi:ry="3"
           sodipodi:rx="3"
           sodipodi:cy="22.362183"
           sodipodi:cx="30"
           id="path3847"
           style="fill:#00ffcc;fill-opacity:1;stroke:none"
           sodipodi:type="arc"
           transform="translate(25,200)" />
      </g>
    </g>
    <g
       id="1"
       inkscape:label="#g3945">
      <rect
         style="fill:none;stroke:#999999;stroke-width:3.20000005;stroke-linejoin:round;stroke-miterlimit:4;stroke-dasharray:none"
         id="rect3849"
         width="60"
         height="60"
         x="95"
         y="177.36218" />
      <path
         d="m 33,22.362183 c 0,1.656854 -1.343146,3 -3,3 -1.656854,0 -3,-1.343146 -3,-3 0,-1.656855 1.343146,-3 3,-3 1.656854,0 3,1.343145 3,3 z"
         sodipodi:ry="3"
         sodipodi:rx="3"
         sodipodi:cy="22.362183"
         sodipodi:cx="30"
         id="path3857"
         style="fill:#00ffcc;fill-opacity:1;stroke:none"
         sodipodi:type="arc"
         transform="translate(95,185)" />
    </g>
  </g>
</svg>
